<svg xmlns="http://www.w3.org/2000/svg" viewBox="0 0 500 287.4">
    <path d="M0 0h500v287.4H0z"/>
    <path d="M412.4 163.6h-9.6L380 218.4h8.6l18.7-46.9 18.6 46.9h9zM77.7 98.3l26.6 26.1h11.3L86.3 96l28.3-26.5h-10.3L77.7 95V69.5h-8.2v54.9h8.2zm140.6 18.8h-31.6V69.5h-8.2v54.9h39.8zm109.3 0H296V69.5h-8.2v54.9h39.8zm65-18.8 26.6 26h11.3L401.3 96l28.3-26.5h-45.2v54.9h8.2zm0-20.6h18l-18 17.3zM81.3 176.2q2.7-2.7 6.5-4.3t8-1.6a22 22 0 0 1 16.7 7.5l5.5-5.6q-3.8-4.4-9.8-7a31 31 0 0 0-23.7-.3 28 28 0 0 0-15.2 37.2A28 28 0 0 0 96 219.3a31 31 0 0 0 22-9.5l-5.5-5.5q-3 3.6-7.3 5.5a22 22 0 0 1-17.2.3 20 20 0 0 1-11-10.9q-1.5-3.8-1.5-8.2a21 21 0 0 1 5.8-14.8m137.3-5.3a29 29 0 0 0-20.3-8.2 29 29 0 0 0-20.2 8.2 28.4 28.4 0 0 0 31.4 46.2 28 28 0 0 0 9.1-46.2m-1.6 28.3a20 20 0 0 1-10.7 10.9 20 20 0 0 1-15.9 0 20 20 0 0 1-12.2-19.1 21 21 0 0 1 5.8-14.8 20 20 0 0 1 14.3-5.9 20 20 0 0 1 14.4 6 21 21 0 0 1 5.8 14.7q0 4.5-1.5 8.2m106.6-27.8a28 28 0 0 0-9.2-5.8q-5.3-2-11.5-2h-19.4v54.8H303q6.2 0 11.5-2 5.4-2 9.2-5.8a27 27 0 0 0 8.2-19.5 27 27 0 0 0-8.2-19.7m-1.8 27.6q-1.5 3.6-4.3 6.3t-6.4 4.2a21 21 0 0 1-8 1.6h-11.3v-40.2H303a21 21 0 0 1 14.4 5.8 20 20 0 0 1 5.9 14.4q0 4.2-1.6 7.9"
          style="fill:#fff"/>
</svg>