<svg xmlns="http://www.w3.org/2000/svg" width="185.7" height="86.7" class="logo" data-name="Logo Bison" viewBox="0 0 185.7 86.7"><defs><clipPath id="a"><path fill="none" d="M0 0h185.7v86.7H0z" data-name="Rechteck 309"/></clipPath></defs><g clip-path="url(#a)" data-name="Gruppe 141"><g fill="#1d1d1b" class="bison_symbol"><path d="M22.7 33.3s-.1.5 2 2.4a11 11 0 0 0 7.8 3 12 12 0 0 0 7.7-3.5c2-2.3 2-3.1 2-3.1l-3 2.1a15 15 0 0 1-6.7 2.2 16 16 0 0 1-7-1.4 11 11 0 0 1-2.8-1.7" data-name="Pfad 121"/><path d="M40.4 38.8s2.5.7 7.7-5c1.4-1.5 4.3-5.8 8-7a47 47 0 0 1 6.4-1.4 30 30 0 0 0 6.3-1.6q3-1.3 3.3-2.5l-2.4.9a42 42 0 0 1-7.4 1.2 41 41 0 0 0-7 .8 11 11 0 0 0-7.4 5c-1 1.4-2.6 4.2-4.2 6.3a15 15 0 0 1-2.7 2.9Z" data-name="Pfad 122"/><path d="M63.8 28s2 1.1 8.6-2c3-1.5 11.3-7.6 11.3-7.6s9-6.5 14.5-9.2c5.2-2.5 8.6-4 15.3-4.5s9.1 1.3 11.3 2.6a9 9 0 0 1 2.5 2.3c1 1.3.6-2-.6-3.7a12 12 0 0 0-5.4-4.7 19 19 0 0 0-8.7-1.1 42 42 0 0 0-12 3.4A58 58 0 0 0 88 11l-9.4 7.6a77 77 0 0 1-7.2 5.6 28 28 0 0 1-7 3.4z" data-name="Pfad 123"/><path d="M118.8 11s1.1 1 4.9.5c3-.4 4.5-1.3 8-1 4.3.3 6.3 3.6 7.1 5a17 17 0 0 1 2.1 10v.8s-.2.5.6.4a3 3 0 0 0 1.8-1.7 5 5 0 0 0 .1-2.5q-.2-.7-.2-.9s.7.4 1 .8a8 8 0 0 1 1.3 5.1 6 6 0 0 1-2.2 4 5 5 0 0 1-2.7 1c-.9.2-1 .3-1.2.7l-.5 1-.7 1.2a10 10 0 0 1-.5 3 58 58 0 0 1-4 8.5 15 15 0 0 1-3.5 4c-1 .9-1.7 1.4-5.2 1.2s-3.9-1.4-7.3.7c-1.5.8-2.4 2.2-5.8 3a7 7 0 0 1-3.2-.1s.1 0 .6-.2a11 11 0 0 0 3.5-1.9l3.4-3c1.3-1.5 2.7-2.5 5.6-2l4 .6a5 5 0 0 0 4.3-2.4 40 40 0 0 0 3.3-6.4 18 18 0 0 0 1.3-5.6c.1-1.5-.2-2.5 1.2-4.2s1.5-4.6 1.4-6.8a11 11 0 0 0-3-7.4 9 9 0 0 0-7.2-2.6c-2.8 0-4.6.4-6.8-.6a3 3 0 0 1-2-2.2c0-1 .5 0 .5 0" data-name="Pfad 124"/><path d="M118.3 17.5s-5.1 4.4-1.4 7.3c1 .8 2.8 1.2 1.9 4a3.3 3.3 0 0 1-4.2 2.3 7 7 0 0 1-3.8-6.8c.3-4.7 5-6.7 6-6.9a3 3 0 0 1 1.5 0" data-name="Pfad 125"/><path d="m121.8 30.7 3.5 1.8q.9.1.7 1.3a4 4 0 0 1-1.7 3 3 3 0 0 1-3.1-.3 4 4 0 0 1-.9-3.7 4 4 0 0 1 1.5-2.1" data-name="Pfad 126"/><path d="m104.7 65.5 2.9-1.4a30 30 0 0 0 4.1-4.3 12 12 0 0 1 5-3 7 7 0 0 1 3.6-.3 14 14 0 0 0-3.8 2.3c-1.8 1.5-3.3 3.6-5.5 5a10 10 0 0 1-6.3 1.7" data-name="Pfad 127"/></g><g fill="#009456" class="bison_text"><path d="M4.6 43.7h9.7c2.2 0 6.1.9 6.1 5 0 3-2.2 5.1-5.7 5.5v.1c2.5.4 4.2 1.8 4.2 4.2 0 4.7-4 6.9-9 7H0Zm2 17.7h1.6c3 0 5-.8 5-3 0-1.8-1.5-2.1-4-2.1H7.6Zm2-9h2.1q3.9-.1 4-2.5c0-1.8-1.5-2-3.7-2H9.5Z" data-name="Pfad 128"/><path d="M25.7 43.7h5.9L27 65.5h-5.9Z" data-name="Pfad 129"/><path d="M49 48.6a11 11 0 0 0-4.7-1c-2.4 0-4.2.4-4.2 2.1 0 3.1 8.5 2 8.5 8.6 0 6-5.7 7.6-10.7 7.6a25 25 0 0 1-6.8-1.1l1.4-4.4a11 11 0 0 0 5.4 1.2c1.8 0 4.6-.3 4.6-2.6 0-3.5-8.4-2.2-8.4-8.4 0-5.6 4.9-7.3 9.7-7.3a18 18 0 0 1 6.7 1Z" data-name="Pfad 130"/><path d="M61.4 66c-7.1 0-9.7-4.5-9.7-9 0-8.3 4.3-13.7 12.8-13.7 7 0 9.7 4.4 9.7 9 0 8.2-4.4 13.6-12.8 13.6M64 47.6c-4.5 0-6.4 5.3-6.4 9 0 2.7 1 5 4 5 4.6 0 6.4-5.2 6.4-8.9 0-2.7-1-5-4-5" data-name="Pfad 131"/><path d="M79.4 43.7h7.3l4.5 15.1 3-15.1h5.6l-4.6 21.8h-7.3l-4.6-15-3 15h-5.6Z" data-name="Pfad 132"/></g>&gt;<g class="claim"><path d="M21.2 78.5h1l-1.5 7.2H24l-.2.8h-4.3Z" data-name="Pfad 133"/><path d="M26.8 78.5h4.4l-.1.8h-3.5l-.5 2.6h3l-.2.8h-3l-.6 3H30l-.1.8h-4.6Z" data-name="Pfad 134"/><path d="M34.6 78.5h1.1l1 8h-1l-.2-2.5h-2.9l-1.2 2.5h-1ZM33 83.3h2.4l-.1-1.4-.3-2.6-1.3 2.6Z" data-name="Pfad 135"/><path d="M39.2 78.5h1.5q3.4.1 3.4 3.2c0 2.8-1.7 4.8-4.3 4.8h-2.2Zm.6 7.2c2 0 3.3-1.6 3.3-4a2.2 2.2 0 0 0-2.4-2.4H40l-1.3 6.4Z" data-name="Pfad 136"/><path d="M46.5 78.5h1l-1.7 8h-1Z" data-name="Pfad 137"/><path d="M49.5 78.5h1l1.8 5.1.5 1.7.4-2.5.9-4.3h.9l-1.6 8h-1l-1.8-5.1q-.2-.6-.5-1.7l-.5 2.5-.8 4.3h-1Z" data-name="Pfad 138"/><path d="M55.7 83.4c0-2.5 1.7-5 4.2-5a2 2 0 0 1 2 1.1l-.5.6a2 2 0 0 0-1.5-.9c-2 0-3.2 2.2-3.2 4.2q0 2.3 2.1 2.5a2 2 0 0 0 1.4-.5l.4-2.2H59l.1-.8h2.6l-.7 3.5a4 4 0 0 1-2.3.8q-3-.1-3-3.3" data-name="Pfad 139"/><path d="M66.7 78.5h2.1q2.4 0 2.5 1.8a2 2 0 0 1-1.8 2A2 2 0 0 1 71 84c0 1.7-1.4 2.5-3.3 2.5H65Zm.9 7.3q2.4 0 2.5-1.8 0-1.2-1.9-1.3h-1.4l-.6 3ZM68 82q2.2-.1 2.2-1.6 0-1-1.7-1.1h-1.1L67 82Z" data-name="Pfad 140"/><path d="M72.6 84.1v-1l1-4.6h1l-1 4.6v1q0 1.7 1.5 1.7c1 0 1.7-.5 2-2.4l1-4.9h1l-1 5c-.5 2.4-1.6 3.2-3 3.2a2.3 2.3 0 0 1-2.5-2.6" data-name="Pfad 141"/><path d="m79.2 85.3.6-.6a3 3 0 0 0 2.1 1.1 1.5 1.5 0 0 0 1.7-1.4q0-.8-1-1.4l-.9-.5a2 2 0 0 1-1.2-2 2.3 2.3 0 0 1 2.4-2.1 3 3 0 0 1 2.3 1.1l-.6.6a2 2 0 0 0-1.7-.9 1.3 1.3 0 0 0-1.5 1.3q.1.9 1 1.3l1 .5a2 2 0 0 1 1.2 2 2.5 2.5 0 0 1-2.8 2.4 3 3 0 0 1-2.6-1.4" data-name="Pfad 142"/><path d="M87.2 78.5h1l-1.6 8h-1Z" data-name="Pfad 143"/><path d="M90.3 78.5h1l1.7 5.1.5 1.7.5-2.5.8-4.3h1l-1.7 8h-1l-1.7-5.1-.6-1.7-.4 2.5-.8 4.3h-1Z" data-name="Pfad 144"/><path d="M97.8 78.5h4.4l-.1.8h-3.5L98 82h3l-.2.8h-3l-.6 3h3.6l-.2.8h-4.5Z" data-name="Pfad 145"/><path d="m102.1 85.3.6-.6a3 3 0 0 0 2.2 1.1 1.5 1.5 0 0 0 1.6-1.4q0-.8-1-1.4l-.9-.5a2 2 0 0 1-1.2-2 2.3 2.3 0 0 1 2.5-2.1 3 3 0 0 1 2.2 1.1l-.6.6a2 2 0 0 0-1.7-.9 1.3 1.3 0 0 0-1.4 1.3q0 .9 1 1.3l1 .5a2 2 0 0 1 1.1 2 2.5 2.5 0 0 1-2.8 2.4 3 3 0 0 1-2.6-1.4" data-name="Pfad 146"/><path d="m108.2 85.3.6-.6a3 3 0 0 0 2.1 1.1 1.5 1.5 0 0 0 1.7-1.4q0-.8-1-1.4l-.9-.5a2 2 0 0 1-1.2-2 2.3 2.3 0 0 1 2.4-2.1 3 3 0 0 1 2.3 1.1l-.6.6a2 2 0 0 0-1.7-.9 1.3 1.3 0 0 0-1.5 1.3q.1.9 1 1.3l1 .5a2 2 0 0 1 1.2 2 2.5 2.5 0 0 1-2.8 2.4 3 3 0 0 1-2.6-1.4" data-name="Pfad 147"/><path d="M118.7 78.5h1l-1.7 8h-1Z" data-name="Pfad 148"/><path d="M123.1 79.3h-2.3l.2-.8h5.6l-.2.8h-2.3l-1.5 7.2h-1Z" data-name="Pfad 149"/><path d="m128.5 85.3.6-.6a3 3 0 0 0 2.2 1.1 1.5 1.5 0 0 0 1.6-1.4q0-.8-1-1.4l-.9-.5a2 2 0 0 1-1.2-2 2.3 2.3 0 0 1 2.5-2.1 3 3 0 0 1 2.2 1.1l-.6.6a2 2 0 0 0-1.7-.9 1.3 1.3 0 0 0-1.4 1.3q0 .9 1 1.3l1 .5a2 2 0 0 1 1.1 2 2.5 2.5 0 0 1-2.8 2.4 3 3 0 0 1-2.6-1.4" data-name="Pfad 150"/><path d="M135.3 83.3c0-2.4 1.6-5 3.8-5 1.8 0 2.8 1.4 2.8 3.4 0 2.5-1.6 5-3.9 5q-2.7-.2-2.7-3.4m5.6-1.5q0-2.5-1.8-2.6c-1.7 0-2.9 2.2-2.9 4q0 2.5 1.9 2.6c1.7 0 2.8-2.1 2.8-4" data-name="Pfad 151"/><path d="M144.3 78.5h1l-1.5 7.2h3.4l-.2.8h-4.3Z" data-name="Pfad 152"/><path d="m148.4 84.1.1-1 .9-4.6h1l-1 4.6v1q0 1.7 1.5 1.7c1 0 1.7-.5 2-2.4l1-4.9h1l-1 5c-.5 2.4-1.5 3.2-3 3.2a2.3 2.3 0 0 1-2.5-2.6" data-name="Pfad 153"/><path d="M158.4 79.3H156l.1-.8h5.6l-.1.8h-2.4l-1.4 7.2h-1Z" data-name="Pfad 154"/><path d="M163.2 78.5h1l-1.7 8h-1Z" data-name="Pfad 155"/><path d="M165 83.3c0-2.4 1.5-5 3.8-5 1.8 0 2.8 1.4 2.8 3.4 0 2.5-1.6 5-3.9 5q-2.7-.2-2.8-3.4m5.7-1.5q0-2.5-1.8-2.6c-1.7 0-2.9 2.2-2.9 4q0 2.5 1.9 2.6c1.7 0 2.8-2.1 2.8-4" data-name="Pfad 156"/><path d="M174 78.5h1l1.8 5.1.5 1.7.4-2.5.8-4.3h1l-1.7 8h-1l-1.7-5.1q-.3-.6-.5-1.7h-.1l-.4 2.5-.8 4.3h-1Z" data-name="Pfad 157"/><path d="m179.7 85.3.6-.6a3 3 0 0 0 2.1 1.1 1.5 1.5 0 0 0 1.7-1.4q0-.8-1-1.4l-.9-.5a2 2 0 0 1-1.2-2 2.3 2.3 0 0 1 2.4-2.1 3 3 0 0 1 2.3 1.1l-.6.6a2 2 0 0 0-1.7-.9 1.3 1.3 0 0 0-1.5 1.3q.1.9 1 1.3l1 .5a2 2 0 0 1 1.2 2 2.5 2.5 0 0 1-2.8 2.4 3 3 0 0 1-2.6-1.4" data-name="Pfad 158"/></g></g></svg>