<svg xmlns="http://www.w3.org/2000/svg" xml:space="preserve" viewBox="24.9 0.1 117.9 58.9"><g fill="none"><path d="M116.5 40.7h27.4v1h-27.4zM0 40.7h27.4v1H0z" class="st1"/><path d="M6.1 40.7h21.3v1H6.1z" class="st1"/></g><g fill="#E8800F"><path d="M85 26.4c-1.8 3.6-5.9 9.1-10.5 9.1-3.4 0-4.9-2.9-4.6-5.7a9 9 0 0 1-8.1 5.7C57.2 35.5 56 32 56 28c0-4.2 1.5-8.2 1.5-12.3q0-1.2-.3-2.2l.2-.6 4.9-.9.5.1.3 2.4c0 4.6-1.8 9-1.8 13.5 0 1.1.1 3.7 1.7 3.7 4.8 0 6.7-12.4 6.7-15.9q0-1.5-.4-3.1l5.3-.8.5.1q.3 1.2.3 2.3c0 4.7-2.3 9.2-2.3 13.9 0 1.1.3 3.5 1.8 3.5 4.6 0 7.2-12.9 7.2-16.5l-.2-2.4 4.9-.8.5.1q.3 1.4.3 3c.3 3.7-1 8-2.6 11.3m19.3-11.1c-2.6 0-6.1 1.7-6.7 6.6l-1 6.5-.3 2.2c1 1.1 2.2 2.1 3.8 2.1 5.4 0 7.2-8.5 7.2-12.6 0-2.1-.2-4.8-3-4.8m-4.2 20.3c-3.8 0-6.6-1.1-9.6-3.4l-.1-.4 3.4-19.4q1-4.5 1.1-9.1l-.2-1.7.2-.6 5-.9.6.1.3 1.8c0 2-.5 4.7-.9 6.9l-1.1 6.3c2.4-1.6 5.1-3.2 8.1-3.2 4.6 0 6 4.4 6 8.3.1 7.4-4.4 15.3-12.8 15.3" class="st2"/><path d="M44.8 14.6q2.5.1 2.7 2.7c0 4.2-5.7 4.9-8.9 5.2.6-3 2.5-7.9 6.2-7.9m8 31.1c-15.9-8.3-14.6-20-14.5-20.5 5.1 0 14.6-.8 14.6-7.8 0-4.3-3.9-5.7-7.6-5.7-6.6 0-11.1 5.2-12.3 11.2l-7.5.5-.6 1.7.5.3 7.4-.1v.3c.5 24.2 26.1 30.6 26.1 30.6 43.8 13.5 83.9-27.9 83.9-27.9-53.8 36.2-90 17.4-90 17.4" class="st2"/></g></svg>