<?xml version="1.0" standalone="no"?>
<!DOCTYPE svg PUBLIC "-//W3C//DTD SVG 20010904//EN"
 "http://www.w3.org/TR/2001/REC-SVG-20010904/DTD/svg10.dtd">
<svg version="1.0" xmlns="http://www.w3.org/2000/svg"
 width="293.000000pt" height="172.000000pt" viewBox="0 0 293.000000 172.000000"
 preserveAspectRatio="xMidYMid meet">
<metadata>
Created by potrace 1.16, written by Peter Selinger 2001-2019
</metadata>
<g transform="translate(0.000000,172.000000) scale(0.100000,-0.100000)"
fill="#000000" stroke="none">
<path d="M1220 860 l0 -860 30 0 30 0 0 860 0 860 -30 0 -30 0 0 -860z"/>
<path d="M520 1296 c-65 -17 -115 -51 -155 -103 l-35 -46 0 72 0 71 -160 0
-160 0 0 -430 0 -430 170 0 170 0 0 250 c0 269 5 301 51 334 30 20 108 21 137
0 49 -34 52 -55 52 -329 l0 -255 170 0 170 0 0 273 c0 149 -5 305 -10 346 -18
135 -84 215 -205 246 -70 18 -133 18 -195 1z"/>
<path d="M1747 1299 c-84 -20 -165 -85 -222 -179 -39 -64 -42 -75 -21 -83 10
-4 25 11 46 43 37 58 126 143 143 137 26 -9 9 -112 -52 -312 -77 -253 -88
-309 -72 -368 53 -189 318 -163 478 48 25 33 70 110 100 170 30 61 52 99 49
85 -20 -97 -27 -169 -22 -213 10 -77 50 -153 99 -185 36 -24 50 -27 126 -27
116 0 178 30 281 134 136 138 219 329 228 522 4 91 2 112 -16 151 -25 57 -62
83 -118 83 -48 0 -79 -22 -101 -73 -38 -90 63 -181 154 -138 20 9 38 14 41 11
11 -10 -28 -173 -59 -253 -83 -212 -213 -352 -325 -352 -95 0 -126 96 -88 276
12 59 102 401 130 497 5 15 -5 17 -108 17 l-114 0 -18 -57 c-29 -93 -125 -331
-168 -418 -95 -187 -186 -295 -252 -295 -77 0 -74 66 18 375 73 241 80 297 46
353 -33 54 -95 72 -183 51z"/>
</g>
</svg>
