<svg xmlns="http://www.w3.org/2000/svg" width="390.7" height="229.3" viewBox="0 0 293 172"><path d="M122 86v86h6V0h-6zM52 42.4a28 28 0 0 0-15.5 10.3L33 57.3V43H1v86h34v-25c0-26.9.5-30.1 5.1-33.4 3-2 10.8-2.1 13.7 0 4.9 3.4 5.2 5.5 5.2 32.9V129h34v-27.3c0-14.9-.5-30.5-1-34.6Q89.5 47 71.5 42.5q-10.3-2.7-19.5-.1M174.7 42.1c-8.4 2-16.5 8.5-22.2 17.9-3.9 6.4-4.2 7.5-2.1 8.3q1.5.6 4.6-4.3c3.7-5.8 12.6-14.3 14.3-13.7q4 1.3-5.2 31.2c-7.7 25.3-8.8 30.9-7.2 36.8 5.3 18.9 31.8 16.3 47.8-4.8 2.5-3.3 7-11 10-17s5.2-9.9 4.9-8.5q-3 14.6-2.2 21.3c1 7.7 5 15.3 9.9 18.5 3.6 2.4 5 2.7 12.6 2.7 11.6 0 17.8-3 28.1-13.4a81 81 0 0 0 22.8-52.2c.4-9.1.2-11.2-1.6-15.1q-3.6-8.4-11.8-8.3c-4.8 0-7.9 2.2-10.1 7.3-3.8 9 6.3 18.1 15.4 13.8 2-.9 3.8-1.4 4.1-1.1 1.1 1-2.8 17.3-5.9 25.3-8.3 21.2-21.3 35.2-32.5 35.2-9.5 0-12.6-9.6-8.8-27.6 1.2-5.9 10.2-40.1 13-49.7.5-1.5-.5-1.7-10.8-1.7h-11.4l-1.8 5.7a445 445 0 0 1-16.8 41.8c-9.5 18.7-18.6 29.5-25.2 29.5-7.7 0-7.4-6.6 1.8-37.5 7.3-24.1 8-29.7 4.6-35.3q-5-8.2-18.3-5.1"/></svg>