<svg xmlns="http://www.w3.org/2000/svg" viewBox="0 0 1600 700" preserveAspectRatio="xMidYMid slice">
<defs>
 <linearGradient id="bg" x1="0" y1="0" x2="0" y2="1"><stop offset="0" stop-color="#f0f8fc"/><stop offset="1" stop-color="#e6f1fa"/></linearGradient>
</defs>
<rect width="1600" height="700" fill="url(#bg)"/>
<path d="M0 639C8 642 34 653 45 659C56 665 61 669 67 675C73 681 80 690 83 693" fill="none" stroke="#84b6df" stroke-width="1.5" stroke-opacity="0.26" stroke-linecap="round" stroke-linejoin="round"/><path d="M0 582C10 585 45 595 63 602C81 610 94 618 108 627C122 636 134 646 144 657C155 668 167 687 171 693M1593 650C1580 652 1563 657 1512 664C1461 671 1325 688 1288 693" fill="none" stroke="#a8cdea" stroke-width="1.0" stroke-opacity="0.18" stroke-linecap="round" stroke-linejoin="round"/><path d="M0 539C14 543 57 553 81 563C105 572 125 581 144 594C164 607 183 622 199 639C214 656 230 684 237 693M1593 617C1578 619 1551 624 1503 629C1455 633 1380 635 1305 643C1230 650 1102 667 1053 674C1004 680 1021 679 1008 682C995 685 979 691 974 693" fill="none" stroke="#a8cdea" stroke-width="1.0" stroke-opacity="0.18" stroke-linecap="round" stroke-linejoin="round"/><path d="M41 0L0 23M471 0C478 2 500 11 513 15C526 18 537 19 549 19C561 19 574 17 585 14C596 10 610 2 614 0M1519 0C1525 5 1545 23 1557 32C1569 40 1587 48 1593 51M0 501C18 506 77 520 107 531C137 542 163 557 181 567C199 577 205 584 216 593C227 602 236 611 245 621C254 631 262 642 270 654C278 666 290 686 293 693M1593 590C1576 591 1546 598 1494 600C1442 603 1353 600 1278 607C1203 613 1100 629 1044 638C988 647 966 656 945 662C924 668 926 670 917 675C907 680 894 690 889 693" fill="none" stroke="#a8cdea" stroke-width="1.0" stroke-opacity="0.18" stroke-linecap="round" stroke-linejoin="round"/><path d="M675 0C671 3 663 12 654 18C645 24 633 32 621 38C609 43 598 46 585 50C572 53 555 55 540 56C525 57 510 56 495 54C480 53 478 55 450 47C422 40 354 15 324 9C294 3 286 8 270 10C254 12 252 12 225 21C198 29 147 51 110 63C72 75 18 89 0 95M1454 0C1459 6 1475 25 1486 36C1497 47 1509 57 1521 66C1533 75 1545 83 1557 90C1569 97 1587 105 1593 107M0 466C22 472 104 492 135 502C166 511 169 515 184 522C199 529 212 537 225 545C238 554 250 564 261 574C272 583 274 583 288 603C302 623 336 678 346 693M1593 564C1578 566 1554 573 1503 574C1452 575 1338 569 1287 570C1236 571 1240 572 1197 579C1154 585 1068 601 1026 610C984 618 967 622 943 630C919 638 901 645 882 656C863 666 840 687 831 693" fill="none" stroke="#84b6df" stroke-width="1.5" stroke-opacity="0.26" stroke-linecap="round" stroke-linejoin="round"/><path d="M723 0C718 4 705 19 694 27C683 35 669 44 657 51C645 57 634 62 621 67C608 72 598 76 576 80C554 83 525 88 486 89C447 91 375 89 342 90C309 91 332 87 288 94C244 101 129 120 81 129C33 138 14 145 0 148M1403 0C1411 9 1433 38 1448 54C1463 70 1479 84 1494 96C1509 108 1522 118 1539 127C1556 136 1584 148 1593 153M0 432C27 438 126 461 162 471C198 481 200 484 216 491C232 499 248 507 261 516C274 525 286 535 297 544C308 554 309 551 326 576C343 601 387 674 399 693M777 693C787 685 815 659 837 645C859 632 879 622 906 612C933 602 950 598 999 586C1048 574 1150 549 1197 541C1244 532 1228 533 1278 534C1328 536 1442 548 1494 549C1546 550 1576 541 1593 540" fill="none" stroke="#a8cdea" stroke-width="1.0" stroke-opacity="0.18" stroke-linecap="round" stroke-linejoin="round"/><path d="M767 0C761 6 743 26 731 36C719 46 707 54 693 62C679 69 664 76 648 83C632 89 628 92 594 100C560 109 488 121 441 131C394 141 374 153 315 162C256 170 135 177 90 182C45 186 60 186 45 189C30 193 8 200 0 202M1358 0C1366 10 1389 43 1407 63C1426 83 1447 103 1467 120C1487 137 1509 152 1530 164C1551 176 1582 188 1593 192M0 392C34 400 164 430 207 442C250 453 245 454 261 462C277 469 293 478 305 486C317 494 324 499 333 508C342 517 345 515 361 540C378 565 415 631 432 657C449 682 456 687 461 693M1593 515C1584 516 1558 521 1539 523C1520 524 1498 524 1476 523C1454 522 1438 521 1404 516C1370 511 1298 498 1269 495C1240 491 1245 493 1233 494C1221 495 1258 481 1197 499C1136 516 931 575 864 597C797 618 823 614 798 630C773 646 730 682 716 693" fill="none" stroke="#a8cdea" stroke-width="1.0" stroke-opacity="0.18" stroke-linecap="round" stroke-linejoin="round"/><path d="M811 0C805 7 785 29 774 39C763 50 756 56 745 63C735 70 724 77 711 83C698 89 705 89 666 102C627 114 528 140 477 158C426 176 386 198 360 209C334 219 340 217 324 221C308 225 296 228 261 231C226 234 148 237 117 240C86 243 86 244 72 248C58 252 45 258 36 263C27 268 22 275 19 279C15 283 15 284 14 288C13 292 11 300 12 306C13 312 13 316 20 324C27 332 40 344 55 351C69 358 72 359 108 368C144 378 234 397 270 407C306 417 310 422 324 429C338 436 347 442 357 450C367 458 377 468 386 477C394 486 391 478 407 504C422 530 464 605 480 630C497 655 497 650 504 657C511 663 514 666 522 670C530 675 540 680 549 683C558 686 567 688 576 688C585 689 592 690 603 689C614 687 627 685 639 681C651 677 656 676 675 665C694 653 731 626 754 612C776 598 792 591 810 583C828 575 831 574 864 564C897 553 974 533 1009 522C1044 511 1052 506 1075 495C1099 484 1133 465 1152 457C1171 449 1176 448 1188 446C1200 443 1212 443 1224 443C1236 443 1232 439 1260 446C1288 453 1360 474 1395 483C1430 491 1443 493 1467 495C1491 497 1518 498 1539 497C1560 496 1584 490 1593 488M1316 0C1327 13 1356 57 1377 81C1398 105 1419 125 1441 144C1464 163 1487 179 1512 193C1537 207 1580 222 1593 228" fill="none" stroke="#a8cdea" stroke-width="1.0" stroke-opacity="0.18" stroke-linecap="round" stroke-linejoin="round"/><path d="M857 0C848 10 817 47 801 62C785 77 779 81 764 90C749 99 746 102 711 114C676 126 589 149 552 162C514 175 514 174 486 189C459 204 409 237 387 252C365 267 363 270 354 279C345 288 336 298 332 306C328 314 329 318 330 324C331 330 321 322 340 342C358 362 422 420 442 441C463 462 449 447 462 468C475 489 508 547 520 567C533 587 534 583 540 589C546 595 549 599 558 603C567 607 582 613 594 614C606 616 600 622 630 612C660 602 716 572 774 553C832 533 940 508 981 495C1021 482 1007 483 1017 477C1027 471 1034 466 1042 459C1051 452 1058 443 1068 432C1077 421 1091 399 1098 391C1105 382 1102 385 1107 382C1112 379 1116 376 1125 375C1134 374 1142 374 1161 377C1180 380 1200 381 1242 393C1284 406 1374 438 1411 450C1449 462 1447 460 1467 463C1487 466 1509 469 1530 468C1551 467 1582 459 1593 457M1277 0C1288 16 1323 70 1347 99C1371 128 1400 154 1418 171C1436 188 1442 190 1454 198C1467 206 1471 211 1494 222C1517 233 1576 257 1593 264" fill="none" stroke="#84b6df" stroke-width="1.5" stroke-opacity="0.26" stroke-linecap="round" stroke-linejoin="round"/><path d="M910 0C905 4 895 12 883 27C871 42 850 75 837 90C824 105 816 110 804 117C792 124 792 125 765 132C738 140 674 152 639 161C604 171 581 178 557 189C532 200 508 216 494 225C480 234 479 236 472 243C464 250 454 262 448 270C443 278 441 282 438 288C436 294 435 300 434 306C434 312 434 318 435 324C437 330 423 316 443 342C464 368 534 453 558 479C582 506 578 497 585 502C592 507 596 508 603 510C610 512 597 516 630 514C663 511 757 501 801 495C845 489 874 482 895 477C916 472 917 470 927 466C937 461 949 454 955 450C961 446 961 446 964 441C967 436 972 429 974 423C975 417 975 410 972 402C969 395 966 390 954 378C942 366 912 345 900 333C888 321 888 315 885 306C882 297 880 288 880 279C879 270 881 260 883 252C885 244 885 241 891 234C897 227 909 217 918 212C927 207 936 205 945 204C954 203 962 203 972 204C982 205 990 205 1008 209C1026 214 1062 225 1080 232C1098 239 1097 239 1118 252C1139 265 1179 293 1206 310C1233 326 1242 334 1279 351C1317 368 1398 402 1431 414C1464 427 1461 423 1476 426C1491 428 1506 430 1521 430C1536 430 1554 427 1566 424C1578 421 1588 414 1593 412M1234 0C1248 21 1300 99 1319 126C1339 153 1339 151 1350 162C1361 174 1368 183 1386 197C1404 211 1424 226 1458 245C1492 265 1570 300 1593 311" fill="none" stroke="#a8cdea" stroke-width="1.0" stroke-opacity="0.18" stroke-linecap="round" stroke-linejoin="round"/><path d="M984 0C977 4 955 18 946 27C937 36 932 46 929 54C925 62 924 66 923 72C922 78 922 84 923 90C924 96 927 104 930 108C932 112 928 111 937 117C947 123 952 130 986 144C1020 158 1096 182 1143 203C1190 224 1241 257 1268 270C1295 283 1291 278 1305 281C1319 285 1340 289 1350 290C1360 291 1361 290 1364 288C1367 286 1366 282 1366 279C1366 276 1374 286 1362 270C1349 254 1316 218 1291 180C1267 142 1231 68 1215 41C1199 14 1203 25 1196 18C1190 11 1178 3 1175 0M648 188C634 193 596 204 576 214C556 223 542 236 531 245C520 255 516 263 512 270C508 277 506 280 505 288C503 296 503 308 504 315C505 322 502 322 510 333C518 344 538 369 549 380C560 391 567 394 576 400C585 405 594 409 603 412C612 415 616 417 630 418C644 419 660 421 684 420C708 420 756 417 774 415C792 413 786 412 792 410C798 407 805 405 810 399C815 394 821 406 821 378C820 350 811 262 808 234C804 206 805 217 801 210C797 203 790 197 783 193C776 188 768 186 756 184C744 182 728 180 711 181C694 181 668 185 657 187C646 188 662 184 648 188Z" fill="none" stroke="#a8cdea" stroke-width="1.0" stroke-opacity="0.18" stroke-linecap="round" stroke-linejoin="round"/><path d="M1062 26C1058 28 1049 31 1044 34C1039 37 1035 40 1032 45C1029 50 1026 57 1027 63C1027 69 1029 75 1034 81C1038 87 1046 93 1053 97C1060 102 1067 105 1076 108C1085 111 1097 114 1107 115C1117 116 1127 116 1134 114C1141 113 1144 112 1148 108C1152 104 1156 96 1157 90C1158 84 1157 78 1155 72C1153 66 1150 60 1146 54C1141 48 1133 40 1127 36C1121 32 1117 29 1108 27C1099 25 1079 24 1071 24C1063 24 1066 24 1062 26ZM639 231C632 234 613 242 603 248C593 255 585 262 580 270C574 278 571 290 570 297C569 304 571 309 574 315C577 321 581 327 589 333C597 339 611 345 621 348C631 351 638 352 648 352C658 351 674 350 684 347C694 344 704 340 711 335C718 329 724 323 728 315C732 307 735 297 736 288C736 279 734 268 732 261C729 254 726 248 721 243C716 238 710 234 702 231C694 229 684 227 675 226C666 226 654 228 648 229C642 230 646 228 639 231Z" fill="none" stroke="#a8cdea" stroke-width="1.0" stroke-opacity="0.18" stroke-linecap="round" stroke-linejoin="round"/>
</svg>