<svg xmlns="http://www.w3.org/2000/svg" width="64" height="64"><path fill="#ea4335" d="M40.7 20.5h2l5.6-5.5.3-2.4A25 25 0 0 0 7.8 24.7c.6-.4 2 0 2 0l11-1.9s.6-1 1-.9A14 14 0 0 1 32 17.4a14 14 0 0 1 8.7 3z"/><path fill="#4285f4" d="M56.2 24.8a25 25 0 0 0-7.6-12.2l-7.9 7.9C44 23 46 26.9 46 31.3v1.4a7 7 0 0 1 0 13.9H32L30.6 48v8.3l1.4 1.4h14a18 18 0 0 0 18-18c0-6.2-3.1-11.7-7.8-15"/><path fill="#34a853" d="M18 57.7h14V46.6H18a7 7 0 0 1-2.8-.6l-2 .6-5.6 5.6-.4 1.8A18 18 0 0 0 18 57.7"/><path fill="#fbbc05" d="M18 21.6a18 18 0 0 0-18 18 18 18 0 0 0 7.2 14.5l8-8.1a7 7 0 0 1-4-6.3 7 7 0 0 1 13.2-2.9l8-8a18 18 0 0 0-14.3-7.2"/></svg>