<svg xmlns="http://www.w3.org/2000/svg" width="240" height="62" fill="none"><path fill="currentColor" d="M79.9 37.1v7.8h-5.3V22.2h9.2q4 0 6.4 2a7 7 0 0 1 2.4 5.4 7 7 0 0 1-2.4 5.5 10 10 0 0 1-6.4 2zm0-4h3.9a3 3 0 0 0 2.6-1 3 3 0 0 0 .9-2.4 4 4 0 0 0-.9-2.5 3 3 0 0 0-2.6-1h-4zm33.5-11v15q0 3.8-2.5 6-2.7 2.1-6.8 2.1-4.2 0-6.8-2.1a7 7 0 0 1-2.6-6V22h5.3v15q0 2 1 3a4 4 0 0 0 3.1 1 4 4 0 0 0 3-1q1-.9 1-3V22zm8.6 18.7h10.4v4h-16.9v-2.3l10.2-16.3h-10.2v-4h16.7v2.2zm18.5 0h10.3v4H134v-2.3l10.2-16.3H134v-4h16.7v2.2zm17.6 0h9.8v4h-15V22.3h5.2zm25.8-5.6H175v5.6h10.5v4h-15.8V22.3h15.9v4H175v5h9zm17.6 9.7h-5.3V22.2h5.3zm19.2-18.7h-6V45h-5.3V26.2h-6v-4h17.3zM239.9 37v.1a9 9 0 0 1-2.3 6.1q-2.2 2.1-6.4 2.1-4.1 0-6.9-2.6a9 9 0 0 1-2.6-6.7v-4.7a9 9 0 0 1 2.5-6.8 9 9 0 0 1 6.6-2.6q4.4 0 6.6 2.2a9 9 0 0 1 2.6 6.2h-5.2q0-2.1-1-3.2-.8-1-3-1.1a3 3 0 0 0-2.8 1.4 6 6 0 0 0-1 3.8V36a6 6 0 0 0 1.1 3.8 4 4 0 0 0 3 1.5q2 0 2.8-1t.9-3.3zM53 9.1A31 31 0 1 0 9 52.9 31 31 0 0 0 52.9 9.1m-2.4 10.7-4.3 12c-1 3-7.4 3-16 3 0 0 5.5-.8 7.2-3.9a74 74 0 0 0 3.5-9.4c-8.6 0-9.4 3-9.4 3l-7.3 20.8c-15 0-12.7-7.5-12.7-7.5l7.5-21h15.3l-1 3s1.2-3 9.6-3c0 0 8.6 0 7.6 3"/></svg>