<svg xmlns="http://www.w3.org/2000/svg" width="79.1" height="67.6" viewBox="0 0 20.9 17.9"><path d="M30 15.9q-.4 0-.4.4v2.6q0 .7-.3 1t-1 .4-1-.3l-.2-1v-2.7a.4.4 0 1 0-.9 0V19q0 1 .6 1.5t1.5.5 1.6-.5q.5-.4.5-1.5v-2.7q0-.4-.4-.4M23.9 18.4q-.5-.3-1.1-.3l-1-.4-.3-.4q0-.4.3-.6l.8-.2q.5 0 .9.2l.3.3a.4.4 0 1 0 .6-.5l-.6-.5-1.2-.2q-.6 0-1 .2-.6.2-.8.6l-.2.7q0 .4.2.7t.6.5 1.1.3l1 .3q.3.3.3.5t-.3.5-.9.2l-1-.2-.4-.3h-.5q-.3.2 0 .5.6.7 2 .7l1-.1.7-.6q.3-.3.2-.8l-.1-.7zM35.3 18.4q-.4-.3-1-.3l-1-.4-.4-.4q0-.4.3-.6l.9-.2q.5 0 .8.2l.3.3a.4.4 0 1 0 .7-.5l-.6-.5-1.2-.2q-.6 0-1.1.2-.4.2-.7.6t-.2.7.2.7q0 .3.6.5.4.2 1 .3l1 .3q.4.3.4.5t-.4.5q-.3.3-.8.2l-1-.2-.4-.3a.4.4 0 0 0-.6 0v.5q.7.7 2 .7l1-.1q.5-.2.8-.6l.2-.8q0-.3-.2-.7zM41 20.3h-2.2a.3.3 0 0 1-.4-.3v-1.2h2.3a.3.3 0 0 0 0-.7h-2.3V17q0-.3.4-.4H41a.4.4 0 0 0 0-.7h-2.3a1 1 0 0 0-1 1v3q0 1 1 1.1H41a.4.4 0 1 0 0-.7" style="fill:#0c322c;fill-opacity:1;fill-rule:nonzero;stroke:none;stroke-width:.352777" transform="translate(-20.5 -3.1)"/><path d="M40.5 6.4a1 1 0 1 1-1.8 0 1 1 0 0 1 1.8 0m-6.6 4c-.6-.3-.8-.3-1.6-.3h-1.1c-.2 0-.3 1 .4 1.1q.5 0 .8.4.2.1 0 .2h-1.7q-.5 0-.8-.2l-.7-1-.5-1.2q-.7-1.2-1.8-1.9c-1-.5-2.7-.7-4 .3s-1 3 .1 4q.8.5 1.8.5c1.1-.1 2-1 1.8-2q0-.7-.6-1l-.8-.1q-.3 0-.7.2-.4.5-.1 1 .2 0 .2.4 0 .2-.2.3-.4 0-.6-.3-.6-.7-.3-1.5.5-1 1.8-1 1.6 0 2.2 1.5.5 1.4-.3 2.7c-1.2 1.7-4 1.5-5.4 0q-1.3-1.2-1.3-3.4c0-1.2.8-2.3 1.6-3.1a11 11 0 0 1 8.6-2.8A15 15 0 0 1 35 4.3q.8.3 1.2.8V3.4q0-.3.3-.2L40 4.7c1.4.6 1.5 2.1 1.6 3.5q-.2.2-.4.1h-1.6q-1 0-1.6-.6h-.2q0 0 0 .2l.7.5 1.2.3h1.3q.6-.1 0 .2l-1 .5a6 6 0 0 1-2.6.2h-1l-.3.1v.7q0 .6.6.7.6.2.8.6l-.7.1H35l-.2-.3q0-.2-.2-.5zm6-5.1a1.3 1.3 0 1 0-.6 2.4 1.3 1.3 0 0 0 .6-2.4m.4 1.2a.3.3 0 1 0 0 .5q.3-.2 0-.5" style="fill:#31ba78;fill-opacity:1;fill-rule:nonzero;stroke:none;stroke-width:.352777" transform="translate(-20.5 -3.1)"/></svg>