<?xml version="1.0" encoding="utf-8"?>
<!-- Generator: Adobe Illustrator 27.2.0, SVG Export Plug-In . SVG Version: 6.00 Build 0)  -->
<svg version="1.1" id="Layout" xmlns="http://www.w3.org/2000/svg" xmlns:xlink="http://www.w3.org/1999/xlink" x="0px" y="0px"
	 viewBox="0 0 520 300" style="enable-background:new 0 0 520 300;" xml:space="preserve">
<style type="text/css">
	.st0{fill:#231E46;}
	.st1{fill:#F6B0A3;}
	.st2{opacity:0.8;fill:#92A9AF;enable-background:new    ;}
	.st3{opacity:0.8;fill:#4B4596;enable-background:new    ;}
</style>
<g>
	<g>
		<path class="st0" d="M54.9,49.7c-0.3-3.6-2-6.9-9-6.9c-5.5,0-9.2,1.4-9.2,7c0,12.1,23.8,4.6,23.8,20.5C60.5,78.9,53.1,82,46,82
			c-11.3-0.1-15.2-8-15.2-13c0-0.6,0.4-1.1,1-1.1h2.6c0.6,0,1,0.5,1,1c0.1,2.6,1.9,8.8,10.7,8.8c5.6,0,9.9-2,9.9-7.6
			c0-11.2-23.8-3.9-23.8-20.5c0-7.7,5.8-11,13.9-11c10.7,0,13.4,6.5,13.4,10.9c0,0.6-0.4,1-1,1H56C55.3,50.6,55,50.3,54.9,49.7z"/>
		<path class="st0" d="M115.9,39.9c0,0.2-0.1,0.4-0.2,1l-11,39.7c-0.1,0.4-0.5,0.7-1,0.7h-3.5c-0.5,0-0.8-0.3-1-0.7l-9.1-34.2
			L81,80.6c-0.1,0.4-0.5,0.7-1,0.7h-3.6c-0.5,0-0.8-0.2-1-0.7L64.3,40.9c-0.1-0.4-0.2-0.7-0.2-1c0-0.4,0.2-0.7,0.7-0.7h3.1
			c0.4,0,0.9,0.2,1.1,1l9.2,34.6l9.3-34.6c0.2-0.7,0.5-1,1-1h3.1c0.5,0,0.9,0.3,1.1,1l9.3,34.6l9.2-34.6c0.1-0.5,0.4-1,1-1h3
			C115.6,39.3,115.9,39.6,115.9,39.9z"/>
		<path class="st0" d="M122.5,80.3v-40c0-0.5,0.4-1,1-1h2.5c0.6,0,1,0.5,1,1v40c0,0.6-0.4,1-1,1h-2.5
			C123,81.3,122.5,80.9,122.5,80.3z"/>
		<path class="st0" d="M159.2,49.7c-0.3-3.6-2-6.9-9-6.9c-5.5,0-9.2,1.4-9.2,7c0,12.1,23.8,4.6,23.8,20.5c0,8.6-7.4,11.7-14.5,11.7
			c-11.3,0-15.2-7.9-15.2-12.8c0-0.6,0.4-1.1,1-1.1h2.6c0.6,0,1,0.5,1,1c0.1,2.6,1.9,8.8,10.7,8.8c5.6,0,9.9-2,9.9-7.6
			c0-11.2-23.8-3.9-23.8-20.5c0-7.7,5.8-11,13.9-11c10.7,0,13.4,6.5,13.4,10.9c0,0.6-0.4,1-1,1h-2.5
			C159.7,50.6,159.2,50.3,159.2,49.7z"/>
		<path class="st0" d="M194.2,49.7c-0.3-3.6-2-6.9-9-6.9c-5.5,0-9.2,1.4-9.2,7c0,12.1,23.8,4.6,23.8,20.5c0,8.6-7.4,11.7-14.5,11.7
			c-11.3,0-15.2-7.9-15.2-12.8c0-0.6,0.4-1.1,1-1.1h2.6c0.6,0,1,0.5,1,1c0.1,2.6,1.9,8.8,10.7,8.8c5.6,0,9.9-2,9.9-7.6
			c0-11.2-23.8-3.9-23.8-20.5c0-7.7,5.8-11,13.9-11c10.7,0,13.4,6.5,13.4,10.9c0,0.6-0.4,1-1,1h-2.5
			C194.7,50.6,194.4,50.3,194.2,49.7z"/>
		<path class="st0" d="M62.8,127.7c-0.5,7.1-6.3,14.2-15.9,14.2s-16.6-7.1-16.6-17.6v-8c0-10.5,7-17.6,16.6-17.6s15.3,6.8,15.8,14.1
			c0.1,0.9-0.4,1.5-1.3,1.5h-6.1c-0.7,0-1.3-0.4-1.5-1.6c-0.5-2.9-2.5-5.8-6.8-5.8s-7.9,3.4-7.9,9.5v7.9c0,6.2,3.5,9.4,7.9,9.4
			s6.5-2.7,6.8-5.6c0.1-0.9,0.4-1.9,1.6-1.9h6C62.3,126.3,62.8,127.1,62.8,127.7z"/>
		<path class="st0" d="M93.1,141.3H70.3c-1,0-1.9-0.8-1.9-1.9v-38.3c0-1,0.8-1.9,1.9-1.9h5c1,0,1.9,0.8,1.9,1.9v32h16
			c1,0,1.9,0.8,1.9,1.9v4.4C95,140.5,94.1,141.3,93.1,141.3z"/>
		<path class="st0" d="M114,98.7c9.6,0,16.7,7,16.7,17.5v8.1c0,10.5-7.1,17.6-16.7,17.6s-16.6-7.1-16.6-17.6v-8.1
			C97.4,105.7,104.4,98.7,114,98.7z M114,133.7c4.4,0,8-3.2,8-9.4v-8c0-6.2-3.7-9.5-8-9.5s-7.9,3.3-7.9,9.5v8
			C106.1,130.5,109.6,133.7,114,133.7z"/>
		<path class="st0" d="M161.1,99.3h5c1,0,1.9,0.8,1.9,1.9V125c0,10.5-6.5,17-16,17s-15.8-6.5-15.8-17v-23.8c0-1,0.8-1.9,1.9-1.9h5
			c1,0,1.9,0.8,1.9,1.9V125c0,6.2,2.9,8.8,7.1,8.8s7.3-2.6,7.3-8.8v-23.8C159.2,100.1,160.1,99.3,161.1,99.3z"/>
		<path class="st0" d="M174.6,139.4v-38.3c0-1,0.8-1.9,1.9-1.9h13.1c9.7,0,16.9,7,16.9,17.5v6.9c0,10.5-7.3,17.6-16.9,17.6h-13.2
			C175.4,141.3,174.6,140.5,174.6,139.4z M183.2,133.1h6.2c4.4,0,8-3.2,8-9.4v-6.8c0-6.1-3.7-9.4-8-9.4h-6.2V133.1z"/>
		<path class="st0" d="M64.4,161.2v38.3c0,1-0.8,1.9-1.9,1.9h-4.8c-0.7,0-1.6,0.1-2.9-2.2l-14.9-26.5v26.8c0,1-0.8,1.9-1.9,1.9h-4.7
			c-1,0-1.9-0.8-1.9-1.9v-38.3c0-1,0.8-1.9,1.9-1.9h6.5c1,0,1.9,0.9,2.2,1.4l13.9,25v-24.6c0-1,0.8-1.9,1.9-1.9h4.7
			C63.5,159.3,64.4,160.2,64.4,161.2z"/>
		<path class="st0" d="M106.4,200c0,0.8-0.6,1.3-1.4,1.3h-6c-1,0-1.4-0.5-1.6-1L95,193H79.5l-2.4,7.2c-0.2,0.8-1,1.1-1.4,1.1H70
			c-0.8,0-1.4-0.5-1.4-1.3c0-0.4,0.2-0.8,0.3-1.1l13.5-38.3c0.2-0.5,0.8-1.3,1.8-1.3h6.7c1,0,1.6,0.8,1.8,1.3l13.2,37.7
			C106,198.6,106.4,199.6,106.4,200z M92.6,185.2l-5.1-15.8l-5.3,15.8H92.6z"/>
		<path class="st0" d="M103.1,165.6v-4.4c0-1,0.8-1.9,1.9-1.9h28.6c1,0,1.9,0.8,1.9,1.9v4.4c0,1-0.8,1.9-1.9,1.9h-10v32
			c0,1-0.8,1.9-1.9,1.9h-5c-1,0-1.9-0.8-1.9-1.9v-32h-10C104,167.5,103.1,166.6,103.1,165.6z"/>
		<path class="st0" d="M139.7,199.5v-38.3c0-1,0.8-1.9,1.9-1.9h5c1,0,1.9,0.8,1.9,1.9v38.3c0,1-0.8,1.9-1.9,1.9h-5
			C140.5,201.3,139.7,200.5,139.7,199.5z"/>
		<path class="st0" d="M188.9,160.7c0,0.4-0.4,1.5-0.6,2.1l-13,37.3c-0.2,0.7-0.7,1.3-1.7,1.3h-5.6c-1,0-1.5-0.5-1.7-1.3l-13.3-38
			c-0.1-0.2-0.3-0.8-0.3-1.3c0-0.7,0.5-1.4,1.3-1.4h5.8c1.4,0,1.9,1,2.3,2.2l9,27.7l9-27.7c0.4-1.1,0.7-2.2,2-2.2h5.5
			C188.2,159.3,188.9,160,188.9,160.7z"/>
		<path class="st0" d="M217.8,167.5h-16v8.5h12.4c1,0,1.9,0.8,1.9,1.9v4.4c0,1-0.8,1.9-1.9,1.9h-12.4v9.1h16c1,0,1.9,0.8,1.9,1.8
			v4.5c0,1-0.8,1.9-1.9,1.9h-22.8c-1,0-1.9-0.8-1.9-1.9v-38.3c0-1,0.8-1.9,1.9-1.9h22.8c1,0,1.9,0.8,1.9,1.9v4.4
			C219.6,166.6,218.8,167.5,217.8,167.5z"/>
		<path class="st0" d="M31.4,259.5v-38.3c0-1,0.8-1.9,1.9-1.9h13.1c9.7,0,16.9,7,16.9,17.5v6.9c0,10.5-7.3,17.6-16.9,17.6H33.3
			C32.3,261.3,31.4,260.5,31.4,259.5z M40.1,253.1h6.3c4.4,0,8-3.2,8-9.4V237c0-6.1-3.7-9.4-8-9.4h-6.2L40.1,253.1L40.1,253.1z"/>
		<path class="st0" d="M103,260c0,0.8-0.6,1.3-1.4,1.3h-6c-1,0-1.4-0.5-1.6-1l-2.4-7.3H76l-2.4,7.2c-0.2,0.8-1,1.1-1.4,1.1h-5.7
			c-0.8,0-1.4-0.5-1.4-1.3c0-0.4,0.2-0.8,0.3-1.1L79,220.7c0.2-0.5,0.8-1.3,1.8-1.3h6.7c1,0,1.6,0.8,1.8,1.3l13.2,37.7
			C102.5,258.6,103,259.6,103,260z M89.1,245.3L84,229.5l-5.3,15.8H89.1z"/>
		<path class="st0" d="M135.2,220.7c0,0.7-0.6,1.6-1,2.3l-12.8,22.9v13.6c0,1-0.8,1.9-1.9,1.9h-5c-1,0-1.9-0.8-1.9-1.9v-13.7
			l-12.5-23c-0.2-0.4-0.9-1.4-0.9-2c0-0.8,0.6-1.4,1.4-1.4h6.4c0.5,0,1,0.3,1.4,1.1l8.8,17.2l9.1-17.2c0.2-0.4,0.6-1,1.6-1h5.9
			C134.8,219.3,135.2,219.9,135.2,220.7z"/>
	</g>
	<g>
		<path class="st1" d="M414.6,112.1c0-33.9-35.7-30.2-39.4-40.4c-6.1-16.7-24.7-33-46.7-33s-34.8,17.1-40,29.9
			c-5.5,13.6-42.9,13-45.7,36.4c-3.4,28.6,25.8,39.8,52,39.8l0,0l0,0h79.9l0,0C396.8,144.8,414.6,134.1,414.6,112.1z"/>
		<g>
			<path class="st2" d="M479.1,259.1c-24.6-14.4-21.6-17.5-44.1-21.8c-22.6-4.4-25.7-19.2-34.9-57.3c-9.2-38.1-50.3-72.8-63.5-74.8
				c-13.1-2.1-15.6,30.8-31,44.1c-15.4,13.3-33.9,57.5-44.1,72.9c-6.6,10-35.3,25.6-57.7,39.2h115.5h164
				C481.9,260.6,480.5,259.9,479.1,259.1z"/>
			<path class="st3" d="M341.8,168.7c6.2-10.5,2.2-18.9-5.2-29.3c-7.4-10.5,0-34.3,0-34.3c-13.1-2.1-15.6,30.8-31,44.1
				c-15.4,13.3-33.9,57.5-44.1,72.9c-6.6,10-35.3,25.6-57.7,39.2h115.5C313.1,243.6,335.9,178.7,341.8,168.7z"/>
		</g>
	</g>
</g>
</svg>
