<svg enable-background="new 0 0 372 285" height="285" viewBox="0 0 372 285" width="372" xmlns="http://www.w3.org/2000/svg"><g fill="#022840"><path d="m2.2 258.4v-36.4c0-1 .8-1.8 1.8-1.8h8.7c1 0 1.8.8 1.8 1.8v36 4.7c0 1 .1 2.2.2 3.6s.2 2.4.5 3c.2.6.5 1.2.9 1.8.4.7.9 1.1 1.5 1.3s1.4.3 2.3.3 1.7-.1 2.3-.3 1.1-.6 1.5-1.3c.4-.6.7-1.2.9-1.8s.4-1.5.5-2.9.1-2.6.2-3.5c0-1 0-2.5 0-4.7 0-.1 0-.2 0-.2v-36c0-1 .8-1.8 1.8-1.8h8.7c1 0 1.8.8 1.8 1.8v36.4c0 1.9-.1 3.7-.2 5.3s-.3 3.2-.6 4.9-.7 3.2-1.3 4.5c-.5 1.3-1.3 2.5-2.2 3.7s-2 2.2-3.2 2.9c-1.2.8-2.7 1.4-4.5 1.8-1.7.5-3.7.7-5.9.7s-4.1-.2-5.9-.7c-1.7-.5-3.2-1.1-4.4-1.8-1.2-.8-2.3-1.7-3.2-2.9s-1.6-2.4-2.2-3.7c-.5-1.3-1-2.8-1.3-4.5s-.5-3.3-.7-4.9c.2-1.6.2-3.4.2-5.3z"/><path d="m46.1 279.2v-57.2c0-1 .8-1.8 1.8-1.8h12.9c5.3 0 9.2 1.5 11.6 4.4 2.4 3 3.6 7.2 3.6 12.8 0 2.8-.3 5.1-.8 7.2-.5 2-1.3 3.7-2.2 5s-2.2 2.4-3.7 3.2-3.1 1.4-4.8 1.7-3.7.5-6 .5v24.2c0 1-.8 1.8-1.8 1.8h-8.7c-1.1 0-1.9-.8-1.9-1.8zm12.4-32.9c.7 0 1.2 0 1.7-.1s.9-.2 1.3-.3.7-.3 1-.6.5-.5.7-.7.4-.5.5-1 .2-.8.3-1.1.1-.8.2-1.4c0-.7.1-1.2.1-1.6s0-1 0-1.8c0-.2 0-.4 0-.5 0-.9 0-1.5 0-2s-.1-1-.1-1.7c-.1-.7-.2-1.2-.3-1.6-.1-.3-.4-.7-.6-1.2-.3-.5-.6-.8-1-1s-.9-.4-1.5-.5c-.6-.2-1.3-.2-2.1-.2v17.3z"/><path d="m82 279.2v-57.2c0-1 .8-1.8 1.8-1.8h8.7c1 0 1.8.8 1.8 1.8v23.1h8.8v-23.1c0-1 .8-1.8 1.8-1.8h8.7c1 0 1.8.8 1.8 1.8v57.3c0 1-.8 1.8-1.8 1.8h-8.6c-1 0-1.8-.8-1.8-1.8v-25.3h-8.8v25.3c0 1-.8 1.8-1.8 1.8h-8.7c-1-.1-1.9-.9-1.9-1.9z"/><path d="m124.2 279.2v-57.2c0-1 .8-1.8 1.8-1.8h8.7c1 0 1.8.8 1.8 1.8v57.3c0 1-.8 1.8-1.8 1.8h-8.7c-1-.1-1.8-.9-1.8-1.9z"/><path d="m145.1 279.2v-57.2c0-1 .8-1.8 1.8-1.8h8.7c1 0 1.8.8 1.8 1.8v50.6h10.3c1 0 1.8.8 1.8 1.8v4.8c0 1-.8 1.8-1.8 1.8h-20.7c-1 0-1.9-.8-1.9-1.8z"/><path d="m174.9 279.2v-57.2c0-1 .8-1.8 1.8-1.8h8.7c1 0 1.8.8 1.8 1.8v50.6h10.3c1 0 1.8.8 1.8 1.8v4.8c0 1-.8 1.8-1.8 1.8h-20.8c-1 0-1.8-.8-1.8-1.8z"/><path d="m219.1 260.7v-20.2c0-14.4 5.9-21.6 17.7-21.6 2.5 0 4.7.3 6.6 1s3.5 1.6 4.9 2.8c1.3 1.2 2.4 2.6 3.2 4.3s1.5 3.6 1.8 5.6c.4 2 .6 4.2.6 6.6v3.4c0 1-.8 1.8-1.8 1.8h-8.5c-1 0-1.8-.8-1.8-1.8v-3.8c0-1.1 0-2.1-.1-2.9 0-.8-.2-1.7-.4-2.7s-.5-1.9-.8-2.5-.8-1.2-1.5-1.6c-.6-.5-1.4-.7-2.3-.7-3.6 0-5.3 3-5.3 9v26.3c0 6 1.8 9 5.3 9 1.1 0 2-.3 2.7-.9s1.2-1.5 1.6-2.6c.3-1.1.5-2.2.6-3.3s.2-2.3.2-3.7v-4.4c0-1 .8-1.8 1.8-1.8h8.4c1 0 1.8.8 1.8 1.8v3.3c0 2.3-.2 4.5-.6 6.4-.3 2-.9 3.9-1.7 5.7s-1.8 3.4-3.1 4.7-2.9 2.3-4.9 3.1-4.3 1.2-6.8 1.2c-2.6 0-5-.4-7-1.1-2-.8-3.7-1.8-5-3-1.3-1.3-2.4-2.8-3.3-4.7s-1.5-3.8-1.8-5.9-.5-4.3-.5-6.8z"/><path d="m260.2 261v-20.5c0-14.4 5.9-21.6 17.8-21.6s17.8 7.2 17.8 21.6v20.2c0 2.4-.2 4.7-.5 6.8-.4 2.1-1 4-1.8 5.9-.9 1.8-2 3.4-3.3 4.7s-3 2.3-5.1 3.1c-2.1.7-4.4 1.1-7 1.1s-5-.4-7-1.1c-2.1-.7-3.7-1.7-5.1-3-1.3-1.3-2.4-2.8-3.3-4.6s-1.5-3.8-1.9-5.8c-.4-2.1-.6-4.4-.6-6.8zm23.3 2.8v-26.3c0-6-1.8-9-5.5-9-1.1 0-2 .3-2.8.8-.8.6-1.3 1.3-1.7 2.3s-.6 1.9-.8 2.8c-.1.9-.2 2-.2 3.1v26.3c0 6 1.8 9 5.5 9 3.7-.1 5.5-3 5.5-9z"/><path d="m303.7 279.2v-57.3c0-1 .8-1.8 1.8-1.8h5.8c.7 0 1.4.4 1.7 1.1l12.9 30.8v-30.1c0-1 .8-1.8 1.8-1.8h6.6c1 0 1.8.8 1.8 1.8v57.3c0 1-.8 1.8-1.8 1.8h-5.5c-.7 0-1.4-.5-1.7-1.2l-12.9-32.7v32c0 1-.8 1.8-1.8 1.8h-6.9c-1 .1-1.8-.7-1.8-1.7z"/><path d="m344.8 279.2v-57.2c0-1 .8-1.8 1.8-1.8h21.8c1 0 1.8.8 1.8 1.8v4.8c0 1-.8 1.8-1.8 1.8h-11.3v16.6h7.4c1 0 1.8.8 1.8 1.8v5c0 1-.8 1.8-1.8 1.8h-7.4v25.4c0 1-.8 1.8-1.8 1.8h-8.7c-1 0-1.8-.8-1.8-1.8z"/></g><path d="m368.6 177.9c-20.6-42.5-67.7-130.3-105.2-130.3-12.5 0-26 9.7-39.3 24.2 38.6 57.1 69.5 128.5 69.5 128.5h61c11.5 0 19-12.1 14-22.4z" fill="#23d5df"/><path d="m147.7 200.3h92.2s-18.7-43.1-45.1-89.1c-26.7 41.9-47.1 89.1-47.1 89.1z" fill="#1c4c61"/><path d="m194.8 111.2c26.4 46 45.1 89.1 45.1 89.1h53.7s-30.9-71.4-69.5-128.5c-10.2 11.1-20.1 24.9-29.3 39.4z" fill="#022840"/><path d="m188.5 100.4c-1.9-3.3-3.9-6.5-5.9-9.7-20.2-32.5-43.4-63.5-65.9-78.7-44.7 30.3-92.5 123-113 166-4.9 10.4 2.6 22.3 14.1 22.3h105.7 12.3c3-7 24.2-55.2 51.3-97.7.4-.7.9-1.5 1.4-2.2z" fill="#db3953"/><path d="m143.5 2.2c-.7 0-1.4 0-2.1.1-.2 0-.4 0-.6 0-.6.1-1.3.1-1.9.2-.1 0-.2 0-.2 0-.7.1-1.4.2-2.1.4-.2 0-.4.1-.6.1-.6.1-1.1.3-1.7.4-.2 0-.3.1-.5.1-.7.2-1.4.4-2 .6-.3.1-.5.2-.8.3-.5.2-1 .4-1.5.6-.2.1-.5.2-.7.3-.7.3-1.3.6-2 .9-.3.1-.6.3-.9.4-.4.2-.8.4-1.3.6-.3.2-.6.3-.9.5-.6.3-1.2.7-1.9 1-.3.2-.7.4-1 .6-.4.2-.7.4-1.1.7-.4.2-.7.4-1.1.7-.6.4-1.2.8-1.8 1.2 22.5 15.2 45.7 46.2 65.9 78.7 2 3.2 4 6.5 5.9 9.7 9.1-14.1 18.7-27.5 28.6-38.6-1.8-2.5-3.7-5-5.5-7.5-22.5-29.6-46.6-52-68.2-52z" fill="#a82b44"/></svg>