<svg xmlns="http://www.w3.org/2000/svg" width="60" height="60" aria-hidden="true" viewBox="0 0 60 60"><path fill="currentColor" d="M25 40h10a3 3 0 0 0 3-3v-9a3 3 0 0 0-3-3v-2a5 5 0 0 0-10 0v2a3 3 0 0 0-3 3v9a3 3 0 0 0 3 3m2-17a3 3 0 1 1 6 0v2h-6zm-3 5a1 1 0 0 1 1-1h10a1 1 0 0 1 1 1v9a1 1 0 0 1-1 1H25a1 1 0 0 1-1-1z"/><path fill="currentColor" d="M29 34.82V35a1 1 0 1 0 2 0v-.18a3 3 0 1 0-2 0M30 31a1 1 0 1 1 0 2 1 1 0 0 1 0-2"/><path fill="currentColor" d="M13 30a17 17 0 1 0 34 0 17 17 0 0 0-34 0m17-15a15 15 0 1 1 0 30 15 15 0 0 1 0-30"/><path fill="currentColor" d="M50 52a4 4 0 0 0-3.86 3H39v-6.05a21 21 0 0 0 6-4.25 1 1 0 1 0-1.43-1.4 19 19 0 0 1-5.94 4.1 1 1 0 0 0-.35.25q-.02 0-.03.04a1 1 0 0 0-.17.27 1 1 0 0 0-.04.2 1 1 0 0 0-.04.17V55c0 1.1.9 2 2 2h7.14A4 4 0 1 0 50 52m0 6a2 2 0 1 1 0-4 2 2 0 0 1 0 4"/><path fill="currentColor" d="M7.86 41h4.83q.01 0 .02 0 .15-.02.3-.06a1 1 0 0 0 .13-.06q.01 0 .04-.02 0 0 .04-.03a1 1 0 0 0 .41-.56q0-.03.01-.05a1 1 0 0 0 .05-.22 1 1 0 0 0-.02-.11q0-.03-.01-.04a1 1 0 0 0-.11-.34v-.01a19 19 0 0 1-2.17-5.7 1 1 0 0 0-1.96.4q.5 2.5 1.6 4.8H7.86a4 4 0 1 0 0 2M4 42a2 2 0 1 1 0-4 2 2 0 0 1 0 4"/><path fill="currentColor" d="M0 20a4 4 0 0 0 7.86 1h4.86a1 1 0 0 0 .78-.44q.02-.03.04-.05c1.28-2.23 3-4.17 5.06-5.71a1 1 0 1 0-1.2-1.6 21 21 0 0 0-5.27 5.8H7.86A4 4 0 0 0 0 20m6 0a2 2 0 1 1-4 0 2 2 0 0 1 4 0"/><path fill="currentColor" d="M56 36a4 4 0 0 0-3.86 3h-3.16a21 21 0 0 0 1.6-4.8 1 1 0 1 0-1.96-.4c-.4 2-1.14 3.93-2.16 5.7v.01q-.09.15-.12.34 0 .03 0 .04-.02.05-.03.11 0 .12.05.23 0 .02 0 .04.05.15.15.3.02.03.03.04.1.13.24.22.03 0 .04.03.03.01.04.02.06.03.14.06a1 1 0 0 0 .29.05q0 0 .02 0h4.83A4 4 0 1 0 56 36m0 6a2 2 0 1 1 0-4 2 2 0 0 1 0 4"/><path fill="currentColor" d="M23 48.35v-.02q0-.08-.03-.17-.01-.1-.04-.2a1 1 0 0 0-.18-.27q0-.02-.03-.04a1 1 0 0 0-.35-.25 19 19 0 0 1-6.8-5.05 1 1 0 1 0-1.53 1.3A21 21 0 0 0 21 48.97V55h-7.14a4 4 0 1 0 0 2H21a2 2 0 0 0 2-2zM10 58a2 2 0 1 1 0-4 2 2 0 0 1 0 4"/><path fill="currentColor" d="M33.8 48.62c-2.5.5-5.1.5-7.6 0a1 1 0 1 0-.4 1.96q1.6.3 3.2.37V59a1 1 0 1 0 2 0v-8.05q1.6-.07 3.2-.37a1 1 0 0 0-.4-1.96"/><path fill="currentColor" d="M21 3h-7.14a4 4 0 1 0 0 2H21v6.67q.01.06.02.12.02.15.08.3a1 1 0 0 0 .28.34 1 1 0 0 0 .3.18q.1.03.22.04.04.01.1.02.21 0 .41-.1 1.83-.8 3.79-1.19a1 1 0 0 0-.4-1.96q-1.43.3-2.8.78V5a2 2 0 0 0-2-2M10 6a2 2 0 1 1 0-4 2 2 0 0 1 0 4"/><path fill="currentColor" d="M46.14 5a4 4 0 1 0 0-2H39a2 2 0 0 0-2 2v6.67q0 .1.03.17.01.1.04.2.07.15.18.27.02.02.03.04.15.16.35.24a19 19 0 0 1 5.94 4.1A1 1 0 1 0 45 15.3a21 21 0 0 0-6-4.26V5zM50 2a2 2 0 1 1 0 4 2 2 0 0 1 0-4"/><path fill="currentColor" d="M30 0a1 1 0 0 0-1 1v9a1 1 0 0 0 1 1 19 19 0 0 1 4 .4 1 1 0 0 0 .2-1.98q-1.6-.3-3.2-.37V1a1 1 0 0 0-1-1"/><path fill="currentColor" d="M52.14 21a4 4 0 1 0 0-2h-4.83q-.03 0-.05.01a1 1 0 0 0-.17.04 1 1 0 0 0-.24.07q0 0-.03.02 0 0-.04.03a1 1 0 0 0-.24.21q-.01.02-.03.05-.1.14-.15.3 0 .02 0 .04a1 1 0 0 0-.05.23q0 .06.02.11 0 .03 0 .04.04.18.13.34v.01A19 19 0 0 1 49 30a1 1 0 0 0 1 1h9a1 1 0 1 0 0-2h-8.03c-.13-2.77-.81-5.5-2-8zM56 18a2 2 0 1 1 0 4 2 2 0 0 1 0-4"/><path fill="currentColor" d="M1 31h9a1 1 0 0 0 1-1q0-3.05.95-5.95a1 1 0 0 0-1.9-.62Q9.16 26.15 9.04 29H1a1 1 0 1 0 0 2"/></svg>