<svg xmlns="http://www.w3.org/2000/svg" width="16" height="16" aria-hidden="true" viewBox="0 0 16 16"><g fill="currentColor"><path d="M8.47 7.86v3.58l3.1-1.79V6.08z"/><path d="M4.9 5.27 8 7.05l3.1-1.78L8 3.48z"/><path d="m7.53 7.86-3.1-1.78v3.57l3.1 1.79z"/><path d="M14.12 2.69q-.52.01-.89.32L8.02 0 2.78 3.02A1.36 1.36 0 0 0 .51 4.05c0 .6.4 1.12.94 1.3v6.03l5.18 3a1.37 1.37 0 1 0 2.7.04l5.26-3.04V5.34a1.37 1.37 0 0 0-.47-2.65m-.47 8.15L8.87 13.6a1.36 1.36 0 0 0-1.76-.03l-4.73-2.73V5.33a1.4 1.4 0 0 0 .86-1.49l4.78-2.76 4.75 2.75a1.4 1.4 0 0 0 .88 1.51z"/></g></svg>