<svg xmlns="http://www.w3.org/2000/svg" width="60" height="60" viewBox="0 0 60 60" aria-hidden="true"><g transform="translate(22.1181 24.6529)"><path fill="currentColor" fill-rule="nonzero" d="M7.8819 0 C5.7667 0.0733 3.7627 0.965 2.2923 2.4872 C0.8218 4.0095 0 6.0432 0 8.1596 C0 10.2761 0.8218 12.3098 2.2923 13.832 C3.7627 15.3542 5.7667 16.246 7.8819 16.3193 C9.997 16.246 12.0011 15.3542 13.4715 13.832 C14.9419 12.3098 15.7638 10.2761 15.7638 8.1596 C15.7638 6.0432 14.9419 4.0095 13.4715 2.4872 C12.0011 0.965 9.997 0.0733 7.8819 0 Z M7.8819 14.4443 C6.6268 14.501 5.3835 14.1807 4.3121 13.5246 C3.2406 12.8684 2.3902 11.9065 1.8704 10.7627 C1.3505 9.619 1.185 8.3458 1.3952 7.1071 C1.6054 5.8684 2.1817 4.7211 3.0498 3.8129 C3.9178 2.9046 5.038 2.2771 6.2659 2.0112 C7.4938 1.7452 8.7732 1.853 9.9393 2.3206 C11.1053 2.7883 12.1047 3.5943 12.8086 4.635 C13.5125 5.6757 13.8887 6.9033 13.8887 8.1596 C13.9228 9.7888 13.3098 11.3651 12.1839 12.5431 C11.0579 13.7211 9.511 14.4048 7.8819 14.4443 Z"/></g><g transform="translate(25.6731 28.579)"><path fill="currentColor" fill-rule="nonzero" d="M7.9726 2.4738 L6.0765 2.1982 L5.2278 0.4798 C5.1415 0.3336 5.0186 0.2125 4.8712 0.1283 C4.7238 0.0442 4.557 0 4.3872 0 C4.2175 0 4.0507 0.0444 3.9033 0.1286 C3.7559 0.2128 3.6331 0.334 3.5469 0.4802 L2.6991 2.1982 L0.803 2.4738 C0.6299 2.499 0.4672 2.572 0.3334 2.6848 C0.1996 2.7976 0.1001 2.9455 0.046 3.1119 C-0.0081 3.2783 -0.0146 3.4565 0.0273 3.6264 C0.0692 3.7963 0.1578 3.951 0.283 4.0732 L1.6554 5.4103 L1.3313 7.2991 C1.3018 7.4715 1.3212 7.6487 1.3871 7.8107 C1.4531 7.9728 1.563 8.1131 1.7045 8.2159 C1.8461 8.3187 2.0135 8.3799 2.188 8.3925 C2.3624 8.4052 2.5369 8.3687 2.6918 8.2874 L4.3874 7.3957 L6.0848 8.2874 C6.2396 8.3688 6.414 8.4052 6.5885 8.3926 C6.7629 8.3799 6.9303 8.3187 7.0718 8.2159 C7.2133 8.1131 7.3231 7.9727 7.3889 7.8107 C7.4548 7.6487 7.474 7.4714 7.4443 7.2991 L7.1202 5.4103 L8.4926 4.0732 C8.6179 3.9511 8.7064 3.7963 8.7483 3.6264 C8.7902 3.4565 8.7838 3.2783 8.7297 3.1119 C8.6756 2.9455 8.576 2.7976 8.4422 2.6848 C8.3084 2.5721 8.1457 2.499 7.9726 2.4738 Z M5.4585 4.4115 C5.3498 4.5177 5.2685 4.6488 5.2216 4.7933 C5.1747 4.9379 5.1637 5.0917 5.1893 5.2415 L5.2754 5.7441 L4.8231 5.5065 C4.6886 5.4358 4.5389 5.3989 4.3869 5.3989 C4.2349 5.3989 4.0852 5.4358 3.9506 5.5065 L3.5002 5.7436 L3.5862 5.2415 C3.6119 5.0917 3.6008 4.9379 3.554 4.7933 C3.5071 4.6488 3.4258 4.5177 3.3171 4.4115 L2.9518 4.0563 L3.4562 3.9831 C3.6067 3.9613 3.7496 3.9032 3.8726 3.8137 C3.9956 3.7243 4.095 3.6063 4.1621 3.4699 L4.3873 3.0135 L4.6135 3.4704 C4.6807 3.6067 4.7801 3.7246 4.9031 3.8139 C5.0261 3.9032 5.1689 3.9613 5.3193 3.9831 L5.8238 4.0563 L5.4585 4.4115 Z"/></g><g transform="translate(16.875 19.6884)"><path fill="currentColor" fill-rule="nonzero" d="M25.0891 9.8886 L24.0601 9.8886 C23.9603 9.8886 23.8943 9.7938 23.8687 9.7124 C23.6739 9.1025 23.4279 8.5102 23.1335 7.9417 C23.1081 7.9024 23.0955 7.8561 23.0975 7.8093 C23.0995 7.7625 23.1159 7.7174 23.1445 7.6803 L23.876 6.9488 C24.0303 6.7946 24.126 6.5915 24.1466 6.3743 C24.1671 6.1571 24.1113 5.9396 23.9886 5.7592 C23.0547 4.3816 21.8672 3.1942 20.4895 2.2605 C20.309 2.1382 20.0916 2.0826 19.8746 2.1031 C19.6576 2.1237 19.4545 2.2191 19.3002 2.3731 L18.5687 3.1046 C18.5318 3.1333 18.4869 3.1499 18.4402 3.152 C18.3934 3.1542 18.3472 3.1417 18.3078 3.1165 C17.7393 2.8211 17.1467 2.5748 16.5363 2.3803 C16.4557 2.3547 16.3605 2.2888 16.3605 2.1885 L16.3605 1.16 C16.3605 0.9418 16.2844 0.7305 16.1454 0.5624 C16.0063 0.3943 15.813 0.2799 15.5988 0.2389 C13.965 -0.0796 12.285 -0.0796 10.6512 0.2389 C10.437 0.2799 10.2437 0.3943 10.1046 0.5624 C9.9656 0.7305 9.8895 0.9418 9.8895 1.16 L9.8895 2.1886 C9.8895 2.2888 9.7943 2.3547 9.7137 2.3804 C9.1031 2.575 8.5101 2.8212 7.9413 3.1165 C7.9021 3.1419 7.856 3.1545 7.8094 3.1523 C7.7627 3.1502 7.7179 3.1335 7.6813 3.1046 L6.9498 2.373 C6.7956 2.2188 6.5925 2.1231 6.3754 2.1025 C6.1583 2.082 5.9408 2.1378 5.7605 2.2604 C4.3828 3.1942 3.1953 4.3815 2.2614 5.7591 C2.1387 5.9395 2.0829 6.157 2.1034 6.3742 C2.124 6.5914 2.2197 6.7946 2.374 6.9488 L3.1055 7.6808 C3.1341 7.7179 3.1505 7.7629 3.1525 7.8097 C3.1545 7.8565 3.1419 7.9028 3.1165 7.9422 C2.822 8.5105 2.576 9.1026 2.3813 9.7124 C2.3556 9.7938 2.2897 9.8886 2.1899 9.8886 L1.1609 9.8886 C0.9426 9.8886 0.7312 9.9647 0.5631 10.1038 C0.395 10.243 0.2807 10.4364 0.2399 10.6508 C-0.08 12.2842 -0.08 13.964 0.2399 15.5974 C0.2807 15.8118 0.395 16.0052 0.5631 16.1444 C0.7312 16.2835 0.9426 16.3596 1.1609 16.3596 L2.1899 16.3596 C2.2897 16.3596 2.3557 16.4543 2.3813 16.5358 C2.5761 17.1457 2.8221 17.738 3.1165 18.3065 C3.1419 18.3458 3.1545 18.3921 3.1525 18.4389 C3.1505 18.4857 3.1341 18.5308 3.1055 18.5678 L2.374 19.2993 C2.2197 19.4535 2.124 19.6568 2.1034 19.8739 C2.0829 20.0911 2.1387 20.3087 2.2614 20.4891 C3.1953 21.8667 4.3828 23.054 5.7605 23.9878 C5.9407 24.1107 6.1583 24.1668 6.3755 24.1462 C6.5927 24.1257 6.7958 24.0298 6.9498 23.8752 L7.6813 23.1436 C7.7183 23.1152 7.7632 23.0988 7.8099 23.0967 C7.8565 23.0946 7.9027 23.1068 7.9422 23.1317 C8.5107 23.4271 9.1033 23.6734 9.7137 23.8678 C9.7943 23.8935 9.8895 23.9594 9.8895 24.0596 L9.8895 25.0882 C9.8895 25.3064 9.9656 25.5177 10.1046 25.6858 C10.2437 25.8539 10.437 25.9683 10.6512 26.0092 C12.2849 26.3291 13.9651 26.3291 15.5988 26.0092 C15.813 25.9683 16.0063 25.8539 16.1454 25.6858 C16.2844 25.5177 16.3605 25.3064 16.3605 25.0882 L16.3605 24.0596 C16.3605 23.9594 16.4557 23.8934 16.5363 23.8678 C17.1469 23.6732 17.7399 23.4269 18.3087 23.1317 C18.3479 23.1064 18.394 23.0939 18.4406 23.096 C18.4872 23.0981 18.532 23.1148 18.5687 23.1436 L19.3002 23.8751 C19.4544 24.0294 19.6575 24.1251 19.8746 24.1456 C20.0917 24.1662 20.3092 24.1103 20.4895 23.9877 C21.8672 23.054 23.0547 21.8667 23.9886 20.4891 C24.1113 20.3087 24.1671 20.0911 24.1466 19.874 C24.126 19.6568 24.0303 19.4536 23.876 19.2994 L23.1445 18.5674 C23.1159 18.5303 23.0995 18.4853 23.0975 18.4385 C23.0955 18.3917 23.1081 18.3454 23.1335 18.306 C23.428 17.7377 23.674 17.1455 23.8687 16.5358 C23.8944 16.4543 23.9603 16.3595 24.0601 16.3595 L25.0891 16.3595 C25.3074 16.3596 25.5188 16.2835 25.6869 16.1443 C25.8551 16.0052 25.9694 15.8117 26.0102 15.5974 C26.33 13.964 26.33 12.2841 26.0102 10.6508 C25.9694 10.4364 25.855 10.2429 25.6869 10.1038 C25.5188 9.9647 25.3074 9.8886 25.0891 9.8886 Z M24.288 14.4846 L24.0601 14.4846 C23.6154 14.4888 23.1836 14.6349 22.8278 14.9016 C22.4719 15.1683 22.2105 15.5416 22.0816 15.9672 C21.9198 16.4754 21.7149 16.9689 21.4691 17.4422 C21.2582 17.8346 21.1784 18.2842 21.2413 18.7253 C21.3042 19.1663 21.5066 19.5757 21.8188 19.8935 L21.9836 20.0583 C21.4224 20.7752 20.7762 21.4213 20.0592 21.9823 L19.8944 21.8179 C19.5765 21.5059 19.1672 21.3037 18.7263 21.2408 C18.2854 21.1779 17.8359 21.2576 17.4435 21.4682 C16.9702 21.7141 16.4768 21.9191 15.9686 22.0807 C15.5428 22.2096 15.1694 22.4711 14.9026 22.827 C14.6358 23.183 14.4897 23.6148 14.4855 24.0596 L14.4855 24.2876 C13.5821 24.403 12.6678 24.403 11.7645 24.2876 L11.7645 24.0596 C11.7603 23.6148 11.6142 23.183 11.3474 22.827 C11.0806 22.4711 10.7071 22.2096 10.2814 22.0807 C9.7734 21.9192 9.2802 21.7143 8.8074 21.4682 C8.4149 21.2573 7.9652 21.1775 7.5241 21.2404 C7.0829 21.3033 6.6735 21.5057 6.3556 21.8179 L6.1908 21.9823 C5.4738 21.4213 4.8276 20.7752 4.2664 20.0583 L4.4312 19.8939 C4.7434 19.5761 4.9457 19.1668 5.0086 18.7257 C5.0715 18.2847 4.9917 17.8351 4.7808 17.4426 C4.5351 16.9691 4.3302 16.4756 4.1684 15.9672 C4.0395 15.5416 3.7781 15.1683 3.4222 14.9016 C3.0663 14.6349 2.6346 14.4888 2.1899 14.4846 L1.9619 14.4846 C1.846 13.5813 1.846 12.6669 1.9619 11.7636 L2.1899 11.7636 C2.6346 11.7594 3.0663 11.6133 3.4222 11.3466 C3.7781 11.0799 4.0395 10.7065 4.1684 10.2809 C4.3301 9.7727 4.5351 9.2793 4.7808 8.806 C4.9918 8.4136 5.0716 7.9639 5.0087 7.5229 C4.9458 7.0818 4.7434 6.6725 4.4312 6.3547 L4.2664 6.1899 C4.8276 5.473 5.4738 4.8269 6.1908 4.2659 L6.3556 4.4302 C6.6732 4.7426 7.0825 4.9451 7.5235 5.008 C7.9646 5.0709 8.4141 4.991 8.8065 4.7799 C9.2797 4.534 9.7732 4.3291 10.2814 4.1674 C10.7071 4.0386 11.0806 3.7771 11.3474 3.4211 C11.6142 3.0652 11.7603 2.6333 11.7645 2.1885 L11.7645 1.9606 C12.6678 1.8452 13.5821 1.8452 14.4855 1.9606 L14.4855 2.1885 C14.4897 2.6333 14.6358 3.0652 14.9026 3.4211 C15.1694 3.7771 15.5428 4.0386 15.9686 4.1674 C16.4766 4.3289 16.9697 4.5339 17.4426 4.7799 C17.8351 4.9909 18.2848 5.0707 18.7259 5.0078 C19.167 4.9449 19.5765 4.7425 19.8944 4.4302 L20.0592 4.2659 C20.7762 4.8269 21.4224 5.473 21.9836 6.1899 L21.8188 6.3542 C21.5066 6.672 21.3043 7.0814 21.2413 7.5224 C21.1784 7.9635 21.2582 8.4131 21.4691 8.8055 C21.7148 9.279 21.9197 9.7726 22.0816 10.2809 C22.2105 10.7065 22.4719 11.0799 22.8278 11.3465 C23.1837 11.6132 23.6154 11.7593 24.0601 11.7636 L24.288 11.7636 C24.404 12.6669 24.404 13.5813 24.288 14.4846 Z"/></g><g transform="translate(3.7501 15.9375)"><path fill="currentColor" fill-rule="nonzero" d="M0.9374 43.125 L51.5624 43.125 C51.7338 43.125 51.902 43.0779 52.0485 42.9889 C52.1951 42.9 52.3145 42.7725 52.3937 42.6205 C52.4729 42.4684 52.5089 42.2975 52.4977 42.1264 C52.4866 41.9554 52.4287 41.7906 52.3305 41.6501 L45.9374 32.5171 L45.9374 2.8125 C45.9365 2.0668 45.64 1.3519 45.1127 0.8247 C44.5854 0.2974 43.8705 0.0008 43.1249 0 L9.3749 0 C8.6292 0.0008 7.9143 0.2974 7.387 0.8247 C6.8597 1.3519 6.5632 2.0668 6.5624 2.8125 L6.5624 32.5171 L0.1692 41.6501 C0.071 41.7906 0.0131 41.9554 0.002 42.1264 C-0.0092 42.2975 0.0268 42.4684 0.106 42.6205 C0.1852 42.7725 0.3046 42.9 0.4512 42.9889 C0.5977 43.0779 0.7659 43.125 0.9374 43.125 Z M8.4374 2.8125 C8.4376 2.5639 8.5365 2.3256 8.7122 2.1499 C8.888 1.9741 9.1263 1.8752 9.3749 1.875 L43.1249 1.875 C43.3734 1.8752 43.6117 1.9741 43.7875 2.1499 C43.9633 2.3256 44.0621 2.5639 44.0624 2.8125 L44.0624 31.875 L8.4374 31.875 L8.4374 2.8125 Z M7.9879 33.75 L44.5118 33.75 L49.7615 41.25 L2.7382 41.25 L7.9879 33.75 Z"/></g><g transform="translate(26.25 0.9375)"><path fill="currentColor" fill-rule="nonzero" d="M3.75 7.5 C4.4917 7.5 5.2167 7.2801 5.8334 6.868 C6.4501 6.456 6.9307 5.8703 7.2145 5.1851 C7.4984 4.4998 7.5726 3.7458 7.4279 3.0184 C7.2833 2.291 6.9261 1.6228 6.4016 1.0984 C5.8772 0.5739 5.209 0.2168 4.4816 0.0721 C3.7542 -0.0726 3.0002 0.0016 2.3149 0.2855 C1.6297 0.5693 1.044 1.0499 0.632 1.6666 C0.2199 2.2833 0 3.0083 0 3.75 C0.0011 4.7442 0.3965 5.6975 1.0995 6.4005 C1.8026 7.1035 2.7558 7.4989 3.75 7.5 Z M3.75 1.875 C4.1208 1.875 4.4834 1.985 4.7917 2.191 C5.1 2.397 5.3404 2.6899 5.4823 3.0325 C5.6242 3.3751 5.6613 3.7521 5.589 4.1158 C5.5166 4.4795 5.338 4.8136 5.0758 5.0758 C4.8136 5.3381 4.4795 5.5166 4.1158 5.589 C3.7521 5.6613 3.3751 5.6242 3.0325 5.4823 C2.6899 5.3404 2.397 5.1 2.191 4.7917 C1.985 4.4834 1.875 4.1208 1.875 3.75 C1.8756 3.2529 2.0733 2.7763 2.4248 2.4248 C2.7763 2.0733 3.2529 1.8756 3.75 1.875 Z"/></g><g transform="translate(51.5625 12.7098)"><path fill="currentColor" fill-rule="nonzero" d="M3.75 0 C3.0083 0 2.2833 0.2199 1.6666 0.632 C1.0499 1.044 0.5693 1.6297 0.2855 2.3149 C0.0016 3.0002 -0.0726 3.7542 0.0721 4.4816 C0.2168 5.209 0.5739 5.8772 1.0984 6.4017 C1.6228 6.9261 2.291 7.2832 3.0184 7.4279 C3.7458 7.5726 4.4998 7.4984 5.1851 7.2145 C5.8703 6.9307 6.456 6.4501 6.868 5.8334 C7.2801 5.2167 7.5 4.4917 7.5 3.75 C7.4989 2.7558 7.1035 1.8026 6.4005 1.0995 C5.6975 0.3965 4.7442 0.0011 3.75 0 Z M3.75 5.625 C3.3792 5.625 3.0166 5.515 2.7083 5.309 C2.4 5.103 2.1596 4.8101 2.0177 4.4675 C1.8758 4.1249 1.8387 3.7479 1.911 3.3842 C1.9834 3.0205 2.162 2.6864 2.4242 2.4242 C2.6864 2.162 3.0205 1.9834 3.3842 1.911 C3.7479 1.8387 4.1249 1.8758 4.4675 2.0177 C4.8101 2.1596 5.103 2.4 5.309 2.7083 C5.515 3.0166 5.625 3.3792 5.625 3.75 C5.6244 4.2471 5.4267 4.7237 5.0752 5.0752 C4.7237 5.4267 4.2471 5.6244 3.75 5.625 Z"/></g><g transform="translate(0.9375 12.7098)"><path fill="currentColor" fill-rule="nonzero" d="M3.75 7.5 C4.4917 7.5 5.2167 7.2801 5.8334 6.868 C6.4501 6.456 6.9307 5.8703 7.2145 5.1851 C7.4984 4.4998 7.5726 3.7458 7.4279 3.0184 C7.2833 2.291 6.9261 1.6228 6.4017 1.0984 C5.8772 0.5739 5.209 0.2168 4.4816 0.0721 C3.7542 -0.0726 3.0002 0.0016 2.3149 0.2855 C1.6297 0.5693 1.044 1.0499 0.632 1.6666 C0.2199 2.2833 0 3.0083 0 3.75 C0.0011 4.7442 0.3965 5.6974 1.0995 6.4005 C1.8026 7.1035 2.7558 7.4989 3.75 7.5 Z M3.75 1.875 C4.1208 1.875 4.4834 1.985 4.7917 2.191 C5.1 2.397 5.3404 2.6899 5.4823 3.0325 C5.6242 3.3751 5.6613 3.7521 5.589 4.1158 C5.5166 4.4795 5.338 4.8136 5.0758 5.0758 C4.8136 5.3381 4.4795 5.5166 4.1158 5.589 C3.7521 5.6613 3.3751 5.6242 3.0325 5.4823 C2.6899 5.3404 2.397 5.1 2.191 4.7917 C1.985 4.4834 1.875 4.1208 1.875 3.75 C1.8756 3.2529 2.0733 2.7763 2.4248 2.4248 C2.7763 2.0733 3.2529 1.8756 3.75 1.875 Z"/></g><g transform="translate(7.7719 4.2137)"><path fill="currentColor" fill-rule="nonzero" d="M16.1216 1.8549 L15.8469 0 C9.4327 0.9499 3.805 3.3138 0 6.6559 L1.2378 8.0649 C4.7745 4.958 10.0599 2.7525 16.1216 1.8549 Z"/></g><g transform="translate(3.0826 22.6144)"><path fill="currentColor" fill-rule="nonzero" d="M5.0436 8.0704 L6.2485 6.633 C4.0918 4.9627 2.54 2.6335 1.8292 0 L0 0.4156 C0.8003 3.4495 2.5717 6.138 5.0436 8.0704 Z"/></g><g transform="translate(50.8383 22.4784)"><path fill="currentColor" fill-rule="nonzero" d="M0 6.6253 L1.2213 8.048 C3.6494 6.1015 5.3691 3.4096 6.1148 0.3882 L4.2801 0 C3.6178 2.6177 2.114 4.9454 0 6.6253 Z"/></g><g transform="translate(35.9354 4.1876)"><path fill="currentColor" fill-rule="nonzero" d="M16.1224 6.5341 C12.2827 3.2382 6.6522 0.9174 0.2673 0 L0 1.8558 C6.037 2.7232 11.3287 4.8903 14.9011 7.9568 L16.1224 6.5341 Z"/></g><g transform="translate(16.875 52.5)"><path fill="currentColor" fill-rule="nonzero" d="M0 0 L29.0625 0 L29.0625 1.875 L0 1.875 L0 0 Z"/></g></svg>
